<svg width="71" height="20" viewBox="0 0 71 20" fill="none" xmlns="http://www.w3.org/2000/svg">
<path d="M4.46 15.06C3.71333 15.06 3.04 14.9333 2.44 14.68C1.85333 14.4133 1.38667 14.02 1.04 13.5C0.706667 12.9667 0.54 12.3067 0.54 11.52C0.54 10.7333 0.806667 9.86 1.34 8.9C1.87333 7.92667 2.76667 6.95333 4.02 5.98L3.82 7.82L2.02 6.42L3.9 4.12C4.91333 4.89333 5.78 5.64667 6.5 6.38C7.23333 7.1 7.79333 7.84 8.18 8.6C8.56667 9.36 8.76 10.1667 8.76 11.02C8.76 11.4333 8.69333 11.88 8.56 12.36C8.42667 12.8267 8.2 13.2667 7.88 13.68C7.56 14.08 7.12 14.4133 6.56 14.68C6.01333 14.9333 5.31333 15.06 4.46 15.06ZM4.68 12.3C5.01333 12.3 5.28 12.2333 5.48 12.1C5.69333 11.9667 5.85333 11.7933 5.96 11.58C6.06667 11.3667 6.12 11.14 6.12 10.9C6.12 10.66 6.06667 10.4 5.96 10.12C5.85333 9.84 5.64667 9.52667 5.34 9.18C5.03333 8.83333 4.58 8.43333 3.98 7.98L5.5 7.78C4.95333 8.15333 4.51333 8.53333 4.18 8.92C3.84667 9.30667 3.60667 9.68 3.46 10.04C3.32667 10.3867 3.26 10.7067 3.26 11C3.26 11.4267 3.4 11.7533 3.68 11.98C3.96 12.1933 4.29333 12.3 4.68 12.3ZM16.2181 19.6L15.6381 16.8C16.5848 16.68 17.4115 16.5333 18.1181 16.36C18.8248 16.2 19.4181 15.9733 19.8981 15.68C20.3781 15.3867 20.7381 14.9867 20.9781 14.48C21.2181 13.96 21.3381 13.2933 21.3381 12.48C21.3381 12.1867 21.3115 11.8933 21.2581 11.6C21.2048 11.2933 21.1248 11.0133 21.0181 10.76C20.9115 10.5067 20.7715 10.3 20.5981 10.14C20.4381 9.98 20.2448 9.9 20.0181 9.9C19.7781 9.9 19.5648 9.98667 19.3781 10.16C19.1915 10.32 19.0448 10.5267 18.9381 10.78C18.8315 11.02 18.7781 11.2667 18.7781 11.52C18.7781 11.7067 18.8248 11.8667 18.9181 12C19.0115 12.12 19.1515 12.2133 19.3381 12.28C19.5248 12.3333 19.7581 12.36 20.0381 12.36C20.3581 12.36 20.6848 12.3267 21.0181 12.26C21.3648 12.18 21.6781 12.0733 21.9581 11.94L22.0381 14.12C21.7181 14.3733 21.3515 14.6 20.9381 14.8C20.5248 14.9867 20.0248 15.08 19.4381 15.08C18.9581 15.08 18.5115 15.0267 18.0981 14.92C17.6848 14.8 17.3181 14.62 16.9981 14.38C16.6915 14.14 16.4515 13.8333 16.2781 13.46C16.1048 13.0733 16.0181 12.6133 16.0181 12.08C16.0181 11.4267 16.1248 10.7933 16.3381 10.18C16.5515 9.56667 16.8448 9.02 17.2181 8.54C17.6048 8.04667 18.0448 7.66 18.5381 7.38C19.0448 7.08667 19.5781 6.94 20.1381 6.94C20.8048 6.94 21.3848 7.10667 21.8781 7.44C22.3848 7.77333 22.8048 8.21333 23.1381 8.76C23.4715 9.29333 23.7248 9.87333 23.8981 10.5C24.0715 11.1267 24.1581 11.7267 24.1581 12.3C24.1581 13.8067 23.8381 15.0867 23.1981 16.14C22.5581 17.1933 21.6448 18.0067 20.4581 18.58C19.2715 19.1667 17.8581 19.5067 16.2181 19.6ZM31.0231 19.6L30.0031 17.04C31.1498 16.64 32.0765 16.2 32.7831 15.72C33.5031 15.24 34.0298 14.7267 34.3631 14.18C34.7098 13.6333 34.8831 13.0667 34.8831 12.48C34.8831 12.1067 34.8298 11.72 34.7231 11.32C34.6165 10.9067 34.4631 10.4733 34.2631 10.02C34.0765 9.56667 33.8498 9.09333 33.5831 8.6L36.2031 7.34C36.6698 8.23333 37.0298 9.08667 37.2831 9.9C37.5498 10.7133 37.6831 11.4733 37.6831 12.18C37.6831 12.8333 37.5965 13.46 37.4231 14.06C37.2631 14.66 37.0098 15.22 36.6631 15.74C36.3298 16.2733 35.8965 16.7733 35.3631 17.24C34.8298 17.7067 34.2031 18.1333 33.4831 18.52C32.7631 18.92 31.9431 19.28 31.0231 19.6ZM51.4108 19.64C50.4508 19.64 49.5841 19.5267 48.8108 19.3C48.0374 19.0867 47.3708 18.76 46.8108 18.32C46.2508 17.88 45.8174 17.3333 45.5108 16.68C45.2174 16.04 45.0708 15.2933 45.0708 14.44C45.0708 14.1333 45.0974 13.7733 45.1508 13.36C45.2041 12.9467 45.3041 12.48 45.4508 11.96C45.5974 11.4267 45.8174 10.8333 46.1108 10.18L48.5708 11.04C48.4241 11.4533 48.2974 11.8333 48.1908 12.18C48.0841 12.5133 48.0041 12.8267 47.9508 13.12C47.8974 13.4 47.8708 13.68 47.8708 13.96C47.8708 14.48 47.9908 14.96 48.2308 15.4C48.4708 15.84 48.8574 16.1867 49.3908 16.44C49.9241 16.7067 50.6241 16.84 51.4908 16.84C52.2908 16.84 52.9574 16.7467 53.4908 16.56C54.0241 16.3867 54.4441 16.14 54.7508 15.82C55.0574 15.5133 55.2774 15.1533 55.4108 14.74C55.5441 14.3267 55.6108 13.88 55.6108 13.4C55.6108 13.0267 55.5641 12.6067 55.4708 12.14C55.3908 11.6733 55.2708 11.1667 55.1108 10.62C54.9508 10.06 54.7708 9.47333 54.5708 8.86L57.3708 8.14C57.5041 8.64667 57.6108 9.08 57.6908 9.44C57.7841 9.8 57.8641 10.1 57.9308 10.34C57.9974 10.5667 58.0508 10.7533 58.0908 10.9C58.2241 11.3 58.3841 11.6067 58.5708 11.82C58.7708 12.02 58.9908 12.1533 59.2308 12.22C59.4841 12.2867 59.7641 12.32 60.0708 12.32C60.3241 12.32 60.5574 12.28 60.7708 12.2C60.9841 12.12 61.1774 11.9533 61.3508 11.7C61.5374 11.4333 61.7041 11.0267 61.8508 10.48C61.9974 9.93333 62.1308 9.18 62.2508 8.22L64.8908 8.64C64.8374 8.94667 64.7841 9.27333 64.7308 9.62C64.6774 9.96667 64.6308 10.2933 64.5908 10.6C64.5508 10.8933 64.5308 11.1333 64.5308 11.32C64.5308 11.4933 64.5774 11.6533 64.6708 11.8C64.7774 11.9467 64.9641 12.0667 65.2308 12.16C65.4974 12.2533 65.8774 12.3 66.3708 12.3C66.7308 12.3 67.0441 12.2667 67.3108 12.2C67.5774 12.12 67.7841 11.98 67.9308 11.78C68.0774 11.5667 68.1508 11.2667 68.1508 10.88C68.1508 10.5467 68.0974 10.1467 67.9908 9.68C67.8841 9.2 67.7441 8.68 67.5708 8.12C67.4108 7.56 67.2241 6.98667 67.0108 6.4L69.8308 5.56C70.0441 6.13333 70.2308 6.74667 70.3908 7.4C70.5641 8.04 70.6974 8.66667 70.7908 9.28C70.8974 9.88 70.9508 10.4067 70.9508 10.86C70.9508 11.5667 70.8441 12.1867 70.6308 12.72C70.4308 13.2533 70.1308 13.7 69.7308 14.06C69.3441 14.4067 68.8708 14.6667 68.3108 14.84C67.7508 15.0133 67.1241 15.1 66.4308 15.1C65.9241 15.1 65.4574 15.0467 65.0308 14.94C64.6174 14.82 64.2574 14.6533 63.9508 14.44C63.6574 14.2267 63.4308 13.9667 63.2708 13.66C63.1108 13.34 63.0374 12.98 63.0508 12.58H63.7308C63.5308 13.3133 63.2574 13.86 62.9108 14.22C62.5641 14.58 62.1774 14.82 61.7508 14.94C61.3241 15.0467 60.8908 15.1 60.4508 15.1C60.1041 15.1 59.7708 15.0667 59.4508 15C59.1308 14.9333 58.8374 14.8267 58.5708 14.68C58.3174 14.52 58.0974 14.3133 57.9108 14.06C57.7241 13.7933 57.5974 13.4733 57.5308 13.1L58.2708 13.9C58.2441 14.8067 58.0641 15.6133 57.7308 16.32C57.3974 17.0267 56.9308 17.6267 56.3308 18.12C55.7441 18.6133 55.0308 18.9867 54.1908 19.24C53.3641 19.5067 52.4374 19.64 51.4108 19.64ZM62.3308 2.72C61.9974 2.72 61.7041 2.59333 61.4508 2.34C61.2108 2.08667 61.0908 1.78667 61.0908 1.44C61.0908 1.09333 61.2108 0.799999 61.4508 0.559999C61.7041 0.319999 61.9974 0.2 62.3308 0.2C62.6774 0.2 62.9708 0.319999 63.2108 0.559999C63.4508 0.799999 63.5708 1.09333 63.5708 1.44C63.5708 1.78667 63.4508 2.08667 63.2108 2.34C62.9708 2.59333 62.6774 2.72 62.3308 2.72ZM60.7308 5.36C60.3974 5.36 60.1041 5.23333 59.8508 4.98C59.6108 4.72667 59.4908 4.42667 59.4908 4.08C59.4908 3.73333 59.6108 3.44 59.8508 3.2C60.1041 2.96 60.3974 2.84 60.7308 2.84C61.0774 2.84 61.3708 2.96 61.6108 3.2C61.8508 3.44 61.9708 3.73333 61.9708 4.08C61.9708 4.42667 61.8508 4.72667 61.6108 4.98C61.3708 5.23333 61.0774 5.36 60.7308 5.36ZM63.8308 5.36C63.4974 5.36 63.2041 5.23333 62.9508 4.98C62.7108 4.72667 62.5908 4.42667 62.5908 4.08C62.5908 3.73333 62.7108 3.44 62.9508 3.2C63.2041 2.96 63.4974 2.84 63.8308 2.84C64.1774 2.84 64.4708 2.96 64.7108 3.2C64.9508 3.44 65.0708 3.73333 65.0708 4.08C65.0708 4.42667 64.9508 4.72667 64.7108 4.98C64.4708 5.23333 64.1774 5.36 63.8308 5.36Z" fill="#7683E5"/>
</svg>
