<svg width="133" height="115" viewBox="0 0 133 115" fill="none" xmlns="http://www.w3.org/2000/svg">
<path d="M65.9271 0C49.1297 3.57202 41.4744 11.9805 31.7615 39.7857L31.2444 42.1124C59.5959 42.5973 75.0548 42.5423 101.903 41.8797C97.286 18.5074 82.0806 0.185299 65.9271 0Z" fill="#98BDE0"/>
<path d="M110.716 41.2191L101.535 41.9399L117.889 100.415C126.644 84.9057 129.909 75.1099 133 55.6453C132.751 47.6489 129.892 44.5509 120.127 41.4051C116.472 41.2355 114.408 41.2117 110.716 41.2191Z" fill="#7683E7"/>
<path d="M20.5133 86.6826L15.868 101.019C6.87094 85.115 3.35724 75.517 0.0239971 57.0922L0 53.8006C0.718044 47.2736 4.2539 44.1483 12.4225 41.5641L21.1082 41.1602L31.5911 42.1052L27.6152 59.7285L20.5133 86.6826Z" fill="#7683E7"/>
<path d="M20.4995 86.3784L15.8839 100.603C22.0252 109.659 26.7033 112.671 37.2732 114.376C58.7519 115.11 70.8401 115.3 92.6605 114.376C106.886 112.673 112.813 108.954 117.877 100.151L101.892 41.8984C75.1756 42.5413 59.7926 42.5947 31.5801 42.1241L27.5917 59.6226L20.4995 86.3784Z" fill="#1A377D"/>
<path d="M65.9271 0C49.1297 3.57202 41.4744 11.9805 31.7615 39.7857L31.2444 42.1124C59.5959 42.5973 75.0548 42.5423 101.903 41.8797C97.286 18.5074 82.0806 0.185299 65.9271 0Z" stroke="white"/>
<path d="M110.716 41.2191L101.535 41.9399L117.889 100.415C126.644 84.9057 129.909 75.1099 133 55.6453C132.751 47.6489 129.892 44.5509 120.127 41.4051C116.472 41.2355 114.408 41.2117 110.716 41.2191Z" stroke="white"/>
<path d="M20.5133 86.6826L15.868 101.019C6.87094 85.115 3.35724 75.517 0.0239971 57.0922L0 53.8006C0.718044 47.2736 4.2539 44.1483 12.4225 41.5641L21.1082 41.1602L31.5911 42.1052L27.6152 59.7285L20.5133 86.6826Z" stroke="white"/>
<path d="M20.4995 86.3784L15.8839 100.603C22.0252 109.659 26.7033 112.671 37.2732 114.376C58.7519 115.11 70.8401 115.3 92.6605 114.376C106.886 112.673 112.813 108.954 117.877 100.151L101.892 41.8984C75.1756 42.5413 59.7926 42.5947 31.5801 42.1241L27.5917 59.6226L20.4995 86.3784Z" stroke="white"/>
</svg>
